PathFileType	4	(X/Y/Z)	c:/Users/goper/Files/vsCode/490R/osim_files/C15/C15_Static01.trc
DataRate	CameraRate	NumFrames	NumMarkers	Units                	OrigDataRate	OrigDataStartFrame	OrigNumFrames
250.00	250.00	8	36	mm	250.0	930	3717
                Frame#	Time	LPSIS			LASIS			LTH1			LTH2			LTH3			LTH4			LLFE			LMFE			LSH1			LSH2			LSH3			LSH4			LLMAL			LMMAL			LCAL			LMTP5			LTOE			LMTP1			RPSIS			RASIS			RTH1			RTH2			RTH3			RTH4			RLFE			RMFE			RSH1			RSH2			RSH3			RSH4			RLMAL			RMMAL			RCAL			RMTP1			RTOE			RMTP5		
		X1	Y1	Z1	X2	Y2	Z2	X3	Y3	Z3	X4	Y4	Z4	X5	Y5	Z5	X6	Y6	Z6	X7	Y7	Z7	X8	Y8	Z8	X9	Y9	Z9	X10	Y10	Z10	X11	Y11	Z11	X12	Y12	Z12	X13	Y13	Z13	X14	Y14	Z14	X15	Y15	Z15	X16	Y16	Z16	X17	Y17	Z17	X18	Y18	Z18	X19	Y19	Z19	X20	Y20	Z20	X21	Y21	Z21	X22	Y22	Z22	X23	Y23	Z23	X24	Y24	Z24	X25	Y25	Z25	X26	Y26	Z26	X27	Y27	Z27	X28	Y28	Z28	X29	Y29	Z29	X30	Y30	Z30	X31	Y31	Z31	X32	Y32	Z32	X33	Y33	Z33	X34	Y34	Z34	X35	Y35	Z35	X36	Y36	Z36

930	3.71600	-401.49008	1024.14941	443.41989	-241.24716	1005.50525	360.76862	-306.10599	626.27966	279.86124	-311.24039	580.25928	290.47174	-254.56386	628.99750	289.12653	-258.48328	583.59875	294.89572	-317.15201	500.97882	308.49210	-296.28644	476.44354	425.04456	-389.34723	396.25531	299.79312	-392.59384	352.92740	290.37424	-328.43564	389.86929	287.27667	-339.86438	346.78809	279.64166	-373.43573	88.08851	323.07950	-341.78622	103.79097	409.47018	-427.04544	57.96984	376.17310	-259.71356	36.53154	276.32932	-192.84360	57.98900	328.30005	-218.08461	38.74954	389.07297	-387.17352	1024.45056	561.28339	-225.20004	1007.01123	611.22095	-302.93408	646.34460	684.89636	-302.26007	600.01270	679.57831	-242.61572	641.57251	678.74072	-250.82254	594.41400	678.42706	-294.28387	497.96219	659.10901	-303.56763	472.81778	541.55298	-387.20404	398.81305	675.73303	-389.45715	356.84647	683.89404	-326.56503	388.30081	684.10156	-338.43851	348.28796	691.37463	-378.20850	86.50328	645.26147	-338.70468	101.80602	561.42114	-432.24753	57.52060	590.69421	-226.12207	38.08784	586.51166	-201.35970	55.23175	645.06543	-271.99677	30.87425	698.61304
931	3.72000	-401.42780	1024.12781	443.43503	-241.23441	1005.46576	360.76862	-306.08661	626.24646	279.86920	-311.23880	580.17645	290.51193	-254.52722	628.99786	289.11902	-258.55942	583.54144	294.91092	-317.13867	500.96991	308.50943	-296.26874	476.43118	425.03973	-389.32452	396.20526	299.79346	-392.57520	352.88629	290.37033	-328.40665	389.87094	287.28165	-339.84827	346.78375	279.62970	-373.45361	88.05267	323.10260	-341.75925	103.75608	409.48959	-426.11932	57.39399	376.26248	-259.69092	36.52406	276.32767	-192.83041	57.95652	328.31543	-218.10356	38.70443	389.08545	-387.15274	1024.45288	561.30542	-225.18544	1006.97009	611.22321	-302.94357	646.30920	684.88910	-302.21906	599.97559	679.60278	-242.59660	641.52930	678.74945	-250.82819	594.38452	678.43567	-294.29831	497.90768	659.11938	-303.56952	472.79980	541.56213	-387.15692	398.78055	675.76105	-389.40198	356.80307	683.93188	-326.60535	388.24234	684.12988	-338.43579	348.25055	691.37250	-378.19620	86.47763	645.29907	-338.68231	101.77869	561.41193	-432.23102	57.50177	590.72955	-226.12674	38.04456	586.52533	-201.32153	55.17794	645.08783	-271.97009	30.83702	698.62555
932	3.72400	-401.42065	1024.13306	443.45941	-241.20955	1005.45288	360.77133	-306.08762	626.23907	279.86877	-311.22946	580.09985	290.52734	-254.53871	628.97675	289.12546	-258.56335	583.49774	294.91357	-317.11105	500.95294	308.49420	-296.25604	476.44812	425.05698	-389.34439	396.14404	299.80783	-392.57336	352.86975	290.38849	-328.44733	389.82883	287.24728	-339.84390	346.76608	279.62875	-373.45432	88.04574	323.10468	-341.74194	103.74364	409.49384	-426.05331	57.30967	376.27570	-259.70190	36.51710	276.32730	-192.82852	57.94424	328.30746	-218.09807	38.69260	389.09064	-387.11548	1024.45886	561.33356	-225.16609	1006.95874	611.22845	-302.92694	646.31415	684.92865	-302.22034	599.96814	679.59985	-242.61604	641.51654	678.76465	-250.82124	594.35895	678.43591	-294.32120	497.89508	659.13904	-303.58679	472.80386	541.57343	-387.13907	398.76749	675.77325	-389.40698	356.77197	683.94672	-326.60956	388.22778	684.13184	-338.43594	348.23712	691.38934	-378.22238	86.42694	645.30731	-338.68506	101.77650	561.40717	-432.19232	57.47549	590.73663	-226.15283	38.01269	586.50824	-201.34851	55.16048	645.06482	-271.95789	30.84415	698.64215
933	3.72800	-401.36536	1024.11670	443.48099	-241.21922	1005.41351	360.76779	-306.10477	626.20166	279.87955	-311.19556	580.05634	290.47321	-254.54137	628.94684	289.11163	-258.56235	583.48438	294.90338	-317.10995	500.93320	308.50513	-296.28857	476.44406	425.06174	-389.32047	396.11200	299.79999	-392.53406	352.82062	290.37729	-328.45312	389.80096	287.26175	-339.83664	346.74060	279.63400	-373.50516	87.95355	323.06946	-341.74686	103.73376	409.50092	-426.05423	57.31966	376.34714	-259.55991	36.68811	276.23642	-192.83849	57.91168	328.29636	-218.08423	38.66950	389.06573	-387.06686	1024.41016	561.34918	-225.15317	1006.95270	611.23553	-302.91559	646.31769	684.93781	-302.24072	599.97504	679.64227	-242.58125	641.51282	678.76306	-250.82321	594.34412	678.44238	-294.32812	497.90933	659.13751	-303.57001	472.78943	541.58575	-387.15134	398.76248	675.79401	-389.39008	356.78839	683.97137	-326.61389	388.21265	684.13080	-338.42743	348.23917	691.39441	-378.22998	86.44974	645.31512	-338.71231	101.75359	561.40356	-432.20746	57.46064	590.75854	-226.13864	37.98421	586.51654	-201.38084	55.10634	645.06677	-271.96442	30.84769	698.65619
934	3.73200	-401.37405	1024.11719	443.48260	-241.23293	1005.37964	360.77121	-306.08301	626.19574	279.88214	-311.12292	580.09479	290.39355	-254.54666	628.92621	289.11517	-258.53510	583.49408	294.90903	-317.12030	500.91809	308.51288	-296.33063	476.46185	425.07928	-389.31616	396.09351	299.80063	-392.53180	352.79156	290.36823	-328.44766	389.80081	287.24002	-339.86014	346.72867	279.62839	-373.42908	88.00887	323.09586	-341.76474	103.75546	409.49490	-426.00873	57.27525	376.35107	-259.56934	36.68794	276.24820	-192.87349	57.90263	328.27936	-218.11017	38.65649	389.05243	-387.07248	1024.42932	561.35193	-225.13817	1006.97803	611.22388	-302.93796	646.36255	684.94989	-302.24341	600.00952	679.64685	-242.60744	641.51941	678.77350	-250.84213	594.33746	678.46216	-294.37790	497.91364	659.15521	-303.56216	472.80988	541.57874	-387.17331	398.77499	675.78217	-389.45233	356.80222	683.96216	-326.62833	388.23611	684.13220	-338.45782	348.23965	691.38977	-378.21140	86.50583	645.32471	-338.71735	101.74984	561.39203	-432.21210	57.44685	590.77979	-226.18903	37.96324	586.48438	-201.38805	55.11319	645.06488	-271.98486	30.87937	698.66992
935	3.73600	-401.35071	1024.12646	443.49033	-241.20055	1005.37329	360.75317	-306.05569	626.18665	279.86465	-311.15250	579.99280	290.43982	-254.55142	628.92230	289.10684	-258.55414	583.48346	294.90189	-317.09100	500.91080	308.51691	-296.32697	476.47940	425.06589	-389.31110	396.06534	299.77252	-392.51147	352.78043	290.37796	-328.47546	389.78558	287.21323	-339.84961	346.72885	279.60046	-373.32959	88.08457	323.04352	-341.73743	103.80328	409.46487	-426.04608	57.34052	376.35666	-259.72888	36.50984	276.29770	-192.87791	57.91975	328.23312	-218.11534	38.65931	389.02527	-387.05780	1024.44507	561.35822	-225.08327	1007.02399	611.20160	-302.95093	646.38495	684.95203	-302.26080	600.05853	679.62866	-242.60367	641.56152	678.75806	-250.86205	594.35754	678.44171	-294.33667	497.97125	659.15466	-303.55414	472.81775	541.57880	-387.20221	398.81720	675.77527	-389.44815	356.83780	683.94391	-326.58768	388.29132	684.08362	-338.44894	348.27634	691.35864	-378.19153	86.59097	645.32385	-338.70947	101.76737	561.38043	-432.72153	57.67211	590.80371	-226.19121	37.97154	586.44434	-201.38551	55.13197	645.02930	-272.00458	30.91788	698.64301
936	3.74000	-401.31766	1024.13818	443.48788	-241.20590	1005.36139	360.77408	-306.02994	626.19830	279.85916	-311.15521	580.00537	290.44400	-254.55940	628.91656	289.09256	-258.54956	583.46442	294.87433	-317.10385	500.92108	308.49637	-296.34177	476.47772	425.07388	-389.24756	396.08740	299.71927	-392.51404	352.78607	290.36444	-328.44934	389.78101	287.20648	-339.84488	346.73779	279.60562	-373.33627	88.09525	323.03058	-341.73343	103.83923	409.45514	-426.02206	57.33078	376.34879	-259.73224	36.53291	276.28555	-192.85597	57.96003	328.18839	-218.07288	38.71792	388.99460	-387.03940	1024.47168	561.37000	-225.01117	1007.09613	611.17804	-302.90656	646.43933	684.94409	-302.22772	600.10870	679.62219	-242.58278	641.59473	678.74109	-250.82162	594.40582	678.43689	-294.30847	498.03391	659.10803	-303.56830	472.83862	541.57001	-387.20837	398.84799	675.75232	-389.45355	356.86508	683.91296	-326.53149	388.37674	684.04468	-338.45963	348.30966	691.35321	-378.16064	86.65806	645.27106	-338.58978	101.86037	561.31244	-432.73038	57.72948	590.75372	-226.15923	38.04726	586.40131	-201.34760	55.18096	644.97223	-271.96832	30.97988	698.62482
937	3.74400	-401.28415	1024.14905	443.47372	-241.16672	1005.34912	360.77533	-306.03345	626.20398	279.86078	-311.05978	580.04999	290.35944	-254.56203	628.90039	289.10654	-258.50723	583.46338	294.89215	-317.08737	500.93076	308.49741	-296.33350	476.48633	425.09521	-389.22049	396.10052	299.70621	-392.48947	352.78766	290.35760	-328.45535	389.77405	287.22461	-339.83041	346.73596	279.60870	-373.35663	88.10573	323.02505	-341.71405	103.86633	409.43549	-426.05722	57.37218	376.28665	-259.72940	36.51543	276.29663	-192.85768	57.98308	328.18164	-218.05884	38.75792	388.98627	-387.00522	1024.46191	561.35168	-224.95088	1007.14905	611.18152	-302.89401	646.47516	684.95862	-302.23767	600.11005	679.60486	-242.54630	641.62762	678.73804	-250.76917	594.43262	678.43604	-294.26831	498.10687	659.14703	-303.55957	472.85046	541.57153	-387.18723	398.86121	675.73236	-389.46671	356.88309	683.90295	-326.49475	388.42261	684.05389	-338.43829	348.34445	691.34564	-378.11713	86.70912	645.27289	-338.60239	101.86217	561.30573	-432.75613	57.77406	590.71906	-226.14734	38.07463	586.36731	-201.31770	55.22368	644.95734	-271.94781	31.01289	698.62915
